Coordinates
version=1
nRows=28
nColumns=34
inDegrees=no

Units are S.I. units (second, meters, Newtons, ...)
If the header above contains a line with 'inDegrees', this indicates whether rotational values are in degrees (yes) or radians (no).

endheader
time	pelvis_tilt	pelvis_list	pelvis_rotation	pelvis_tx	pelvis_ty	pelvis_tz	hip_flexion_r	hip_adduction_r	hip_rotation_r	knee_angle_r	ankle_angle_r	subtalar_angle_r	mtp_angle_r	hip_flexion_l	hip_adduction_l	hip_rotation_l	knee_angle_l	ankle_angle_l	subtalar_angle_l	mtp_angle_l	lumbar_extension	lumbar_bending	lumbar_rotation	arm_flex_r	arm_add_r	arm_rot_r	elbow_flex_r	pro_sup_r	arm_flex_l	arm_add_l	arm_rot_l	elbow_flex_l	pro_sup_l
0.4	0.0215313	-0.0983478	0.0840156	0.338297	1.05635	-0.317786	-0.0293266	0.129924	-0.164218	0.213145	0.128063	-0.142271	-0.0235513	0.500965	-0.238538	-0.132974	0.894514	0.0300432	0.119437	-0.0275714	-0.356931	0.225816	0.0964947	0.164255	-0.25087	-0.143422	0.645122	2.05704	-0.34822	-0.262336	-0.219728	0.835526	2.06229
0.41	0.0220264	-0.0993243	0.0848023	0.34721	1.05566	-0.317946	-0.0426429	0.131836	-0.165181	0.207652	0.133949	-0.134739	-0.0235602	0.500642	-0.23694	-0.147964	0.841085	0.0364142	0.120784	-0.0275991	-0.358247	0.225684	0.100529	0.168601	-0.251561	-0.138813	0.650157	2.05634	-0.348264	-0.25937	-0.227841	0.841245	2.06073
0.42	0.0222629	-0.100887	0.0853379	0.356173	1.05479	-0.318104	-0.0556501	0.134169	-0.16646	0.202459	0.14021	-0.125942	-0.0235691	0.499005	-0.235936	-0.165515	0.78533	0.0425365	0.12525	-0.0276269	-0.359144	0.225868	0.104217	0.172847	-0.252129	-0.134143	0.65538	2.05633	-0.348082	-0.255747	-0.236377	0.846816	2.06041
0.43	0.0221847	-0.103018	0.0856441	0.365188	1.05373	-0.318272	-0.06828	0.136852	-0.168232	0.197578	0.14692	-0.115698	-0.0235781	0.496263	-0.23531	-0.185573	0.727525	0.0485066	0.133855	-0.0276547	-0.359567	0.226357	0.107517	0.177002	-0.252568	-0.129459	0.660719	2.05713	-0.347691	-0.251508	-0.245258	0.852141	2.0611
0.44	0.0217261	-0.105684	0.0857349	0.374256	1.05248	-0.31846	-0.0804369	0.139811	-0.170611	0.193041	0.154102	-0.103955	-0.023587	0.492611	-0.234782	-0.207826	0.667858	0.0544245	0.147549	-0.0276825	-0.359456	0.227127	0.110402	0.181068	-0.25288	-0.124773	0.666111	2.05874	-0.347079	-0.246723	-0.254314	0.857097	2.06246
0.45	0.0208282	-0.108831	0.0856123	0.38338	1.05105	-0.318675	-0.0920163	0.142958	-0.173648	0.188902	0.161743	-0.0907738	-0.023596	0.488192	-0.234024	-0.231657	0.606433	0.0603517	0.167029	-0.0277104	-0.358765	0.228123	0.112866	0.185044	-0.253075	-0.120063	0.671501	2.06099	-0.346211	-0.241492	-0.263281	0.861549	2.064
0.46	0.0194601	-0.11238	0.0852637	0.392565	1.04945	-0.318927	-0.102929	0.146191	-0.177335	0.185235	0.169803	-0.0762893	-0.0236049	0.483082	-0.232688	-0.256104	0.543304	0.0662714	0.19254	-0.0277382	-0.357474	0.22926	0.114922	0.188918	-0.253162	-0.115285	0.676841	2.06359	-0.345036	-0.235941	-0.271843	0.865352	2.06527
0.47	0.0176374	-0.116227	0.0846617	0.40182	1.04769	-0.319217	-0.113124	0.149394	-0.18162	0.182129	0.178225	-0.0606769	-0.0236139	0.477288	-0.230448	-0.279888	0.478563	0.0720647	0.223701	-0.027766	-0.3556	0.23042	0.116598	0.192672	-0.25315	-0.110393	0.682095	2.06626	-0.343492	-0.230217	-0.279661	0.868356	2.06588
0.48	0.0154221	-0.120262	0.0837665	0.411157	1.04581	-0.319548	-0.122599	0.15245	-0.186414	0.179671	0.186937	-0.0441401	-0.0236228	0.470775	-0.227053	-0.301487	0.412455	0.0775124	0.259403	-0.0277938	-0.353201	0.231462	0.117936	0.196277	-0.253039	-0.105352	0.687232	2.06877	-0.341514	-0.224481	-0.286407	0.870419	2.06558
0.49	0.0129027	-0.124374	0.0825346	0.420592	1.04383	-0.319919	-0.131415	0.155258	-0.191582	0.177938	0.195834	-0.0269162	-0.0236318	0.46352	-0.222392	-0.319301	0.345521	0.0823336	0.297815	-0.0278217	-0.350373	0.232246	0.118985	0.199694	-0.25282	-0.100137	0.69223	2.07093	-0.339048	-0.218894	-0.291794	0.871417	2.06428
0.5	0.0101891	-0.128469	0.0809264	0.430138	1.04177	-0.320325	-0.139686	0.157752	-0.196955	0.176977	0.20478	-0.0092657	-0.0236408	0.455567	-0.21655	-0.33189	0.278726	0.0862569	0.336572	-0.0278495	-0.34725	0.232642	0.119808	0.202872	-0.252475	-0.0947545	0.697083	2.07262	-0.336049	-0.213616	-0.295596	0.871254	2.06196
0.51	0.00740552	-0.132479	0.0789116	0.439806	1.03967	-0.320758	-0.147568	0.159911	-0.202342	0.176807	0.213607	0.00854939	-0.0236497	0.447088	-0.209831	-0.338268	0.213529	0.0891107	0.373108	-0.0278774	-0.34398	0.232546	0.12048	0.205742	-0.251976	-0.0892513	0.701797	2.07381	-0.332479	-0.208797	-0.297662	0.869865	2.05875
0.52	0.00468007	-0.136367	0.0764749	0.449602	1.03756	-0.321203	-0.155245	0.161746	-0.207565	0.177416	0.22213	0.0262995	-0.0236587	0.43841	-0.202749	-0.338173	0.151856	0.0909003	0.405114	-0.0279053	-0.340718	0.231878	0.12109	0.208216	-0.251285	-0.0837322	0.706392	2.07454	-0.328301	-0.204578	-0.29791	0.867221	2.05484
0.53	0.00212563	-0.140123	0.0736197	0.459528	1.03546	-0.321643	-0.162885	0.163297	-0.212461	0.178769	0.23015	0.0437842	-0.0236677	0.430015	-0.195953	-0.332209	0.0959469	0.0918302	0.430932	-0.0279332	-0.337604	0.230577	0.121736	0.210187	-0.250358	-0.0783626	0.710906	2.07488	-0.323468	-0.201083	-0.296323	0.863319	2.05049
0.54	-0.000182475	-0.143757	0.0703691	0.46958	1.03339	-0.322054	-0.170611	0.164615	-0.216874	0.180819	0.237453	0.0607935	-0.0236767	0.422493	-0.19012	-0.321779	0.0480524	0.0922503	0.449806	-0.0279611	-0.334731	0.228595	0.122518	0.211536	-0.24915	-0.0733628	0.715383	2.07495	-0.317916	-0.198419	-0.292936	0.858172	2.04601
0.55	-0.0022166	-0.147263	0.0667623	0.479755	1.03139	-0.322413	-0.178484	0.165724	-0.220665	0.183516	0.243825	0.0771061	-0.0236856	0.416419	-0.18581	-0.308799	0.0100489	0.0925316	0.461874	-0.027989	-0.332147	0.225873	0.123533	0.212134	-0.247622	-0.0689869	0.719874	2.07485	-0.311563	-0.19667	-0.28782	0.851798	2.04178
0.56	-0.00398624	-0.1506	0.0628465	0.49005	1.02947	-0.322699	-0.186514	0.166584	-0.223735	0.186826	0.249077	0.0925265	-0.0236946	0.412192	-0.183332	-0.295243	-0.0169513	0.0928991	0.4679	-0.0280169	-0.329867	0.222309	0.124859	0.211864	-0.245746	-0.0654864	0.724421	2.07468	-0.304315	-0.195892	-0.281066	0.844219	2.03817
0.57	-0.00549226	-0.153672	0.0586655	0.500465	1.02766	-0.322903	-0.194692	0.167052	-0.226066	0.190733	0.253079	0.106942	-0.0237036	0.409889	-0.182674	-0.28268	-0.0328159	0.0932921	0.468879	-0.0280449	-0.327904	0.217734	0.126527	0.210636	-0.243503	-0.063062	0.729051	2.07451	-0.296084	-0.196107	-0.272779	0.835471	2.03542
0.58	-0.00670343	-0.156303	0.0542629	0.511006	1.02596	-0.323025	-0.203002	0.166899	-0.227705	0.19525	0.255753	0.120298	-0.0237126	0.409299	-0.183549	-0.272116	-0.0382226	0.0933704	0.465872	-0.0280728	-0.326277	0.211921	0.128511	0.20841	-0.240877	-0.0618099	0.73376	2.07437	-0.286817	-0.197302	-0.263092	0.82561	2.03365
0.59	-0.00755602	-0.15822	0.0496813	0.521678	1.02443	-0.323083	-0.211438	0.165848	-0.228745	0.200417	0.257054	0.132562	-0.0237216	0.410069	-0.185518	-0.26405	-0.0343706	0.092619	0.459966	-0.0281008	-0.325025	0.204634	0.130723	0.205197	-0.237857	-0.0617002	0.738509	2.07427	-0.276498	-0.199432	-0.252165	0.814719	2.03283
0.6	-0.00800008	-0.159165	0.0449665	0.532486	1.0231	-0.32309	-0.21999	0.163603	-0.229267	0.206298	0.256924	0.143637	-0.0237306	0.411786	-0.188084	-0.25862	-0.022732	0.0904708	0.45223	-0.0281288	-0.324206	0.195612	0.133034	0.201047	-0.234439	-0.0625729	0.743226	2.07421	-0.265158	-0.20242	-0.240201	0.802905	2.03286
0.61	-0.00800309	-0.158893	0.0401441	0.543432	1.02198	-0.323059	-0.228621	0.159902	-0.229329	0.21297	0.255272	0.153332	-0.0237396	0.413998	-0.190764	-0.25576	-0.00491096	0.0864223	0.443633	-0.0281567	-0.323853	0.184622	0.135287	0.196041	-0.230629	-0.0641545	0.747808	2.07416	-0.252874	-0.206164	-0.227449	0.790303	2.03355
0.62	-0.00755112	-0.157195	0.0352174	0.554523	1.02109	-0.323	-0.237262	0.154529	-0.228988	0.220516	0.251971	0.16142	-0.0237486	0.416229	-0.193131	-0.2553	0.0174346	0.0801422	0.434909	-0.0281847	-0.323973	0.171473	0.137325	0.190269	-0.226433	-0.0660998	0.75214	2.07408	-0.239765	-0.210551	-0.214185	0.777067	2.03471
0.63	-0.00665198	-0.15392	0.0301776	0.565762	1.02044	-0.322922	-0.24581	0.14734	-0.228305	0.229023	0.246859	0.167647	-0.0237576	0.418038	-0.194859	-0.257042	0.0427222	0.071575	0.426502	-0.0282128	-0.324534	0.156037	0.138986	0.183827	-0.221861	-0.0680234	0.756098	2.07396	-0.225995	-0.215466	-0.200718	0.763386	2.03615
0.64	-0.00533879	-0.149	0.0250224	0.577153	1.02005	-0.322825	-0.254125	0.138284	-0.227364	0.238587	0.239756	0.17177	-0.0237667	0.419088	-0.195744	-0.260831	0.0696148	0.0610171	0.418615	-0.0282408	-0.325471	0.138272	0.140106	0.176807	-0.216924	-0.0695361	0.75956	2.07379	-0.211759	-0.220802	-0.18739	0.749485	2.03771
0.65	-0.0036718	-0.142457	0.0197722	0.588692	1.01991	-0.322708	-0.262027	0.127399	-0.226276	0.249322	0.230484	0.173586	-0.0237757	0.419181	-0.19569	-0.266515	0.0971144	0.0491111	0.411249	-0.0282688	-0.326683	0.118223	0.140514	0.169294	-0.211631	-0.0702756	0.762417	2.07355	-0.197281	-0.226463	-0.174571	0.735631	2.0393
0.66	-0.0017361	-0.134398	0.0144785	0.600375	1.02003	-0.322572	-0.269297	0.114805	-0.225172	0.261378	0.218891	0.172943	-0.0237847	0.418246	-0.194666	-0.273855	0.124545	0.0367525	0.40422	-0.0282969	-0.328046	0.0960248	0.140034	0.16137	-0.206	-0.0699295	0.764582	2.07328	-0.182793	-0.232367	-0.16264	0.722129	2.04089
0.67	0.000363456	-0.124986	0.00922237	0.61219	1.02039	-0.322419	-0.275669	0.100663	-0.224194	0.274955	0.204879	0.169755	-0.0237938	0.416298	-0.192639	-0.282437	0.151445	0.0249336	0.397183	-0.028325	-0.329425	0.0718809	0.138492	0.15311	-0.200061	-0.0682479	0.765998	2.07303	-0.168518	-0.238449	-0.151963	0.709302	2.04249
